<svg xmlns="http://www.w3.org/2000/svg" viewBox="0 0 750 500"><g id="freepik--background-complete--inject-294"><polyline points="328.23 205.67 377.64 233.03 375.78 236.52 326.81 208.64 328.23 205.67" style="fill:#e0e0e0"></polyline><polygon points="325.8 203.08 328.07 199.6 329.39 200.42 327.36 203.93 325.8 203.08" style="fill:#e0e0e0"></polygon><polygon points="372.03 228.7 374.57 230.17 366.29 282.96 362.38 283.01 372.03 228.7" style="fill:#e0e0e0"></polygon><path d="M351,288.46s6-6.09,14.1-5.64a17.49,17.49,0,0,1,12.21,5.61Z" style="fill:#e0e0e0"></path><path d="M325.84,227l-19.56-11.3,5.65-9.78a11.3,11.3,0,0,1,15.43-4.14h0a11.3,11.3,0,0,1,4.13,15.43Z" style="fill:#e0e0e0"></path><rect x="191.02" y="284.97" width="62.69" height="3.05" transform="translate(444.74 572.99) rotate(180)" style="fill:#ebebeb"></rect><polygon points="263.43 288.02 275.19 243.95 226.24 243.95 215.59 288.02 263.43 288.02" style="fill:#ebebeb"></polygon><polygon points="218.52 284.68 262.25 284.68 272.43 245.99 228.48 245.99 218.52 284.68" style="fill:#e0e0e0"></polygon><rect x="178.6" y="297.05" width="3.17" height="151.16" style="fill:#f5f5f5"></rect><rect x="181.77" y="297.48" width="3.17" height="150.73" style="fill:#ebebeb"></rect><rect x="373.66" y="297.05" width="3.17" height="151.16" style="fill:#ebebeb"></rect><rect x="376.82" y="297.48" width="3.17" height="150.73" style="fill:#e0e0e0"></rect><rect x="164.93" y="288.26" width="240.49" height="12.4" style="fill:#e0e0e0"></rect><rect x="269.37" y="300.66" width="105.87" height="20.52" style="fill:#ebebeb"></rect><path d="M327,309.51a2.36,2.36,0,1,1-2.35-2.36A2.35,2.35,0,0,1,327,309.51Z" style="fill:#e0e0e0"></path><path d="M147.87,362h41.58a5.3,5.3,0,0,0,5.3-5.3V343.88a8.93,8.93,0,0,0-8.93-8.93H147.56Z" style="fill:#ebebeb"></path><path d="M188.76,370.05H107a4,4,0,0,1-4-4h0a4,4,0,0,1,4-4h81.77a4,4,0,0,1,4,4h0A4,4,0,0,1,188.76,370.05Z" style="fill:#ebebeb"></path><path d="M90.33,254.64l45-.8,28.56,107.92-60.91.61L80,267.76A10.61,10.61,0,0,1,90.33,254.64Z" style="fill:#e0e0e0"></path><polygon points="112.73 370.05 99.27 448.27 102.96 448.27 120.66 370.05 112.73 370.05" style="fill:#ebebeb"></polygon><polygon points="144.47 370.05 130.16 448.27 133.85 448.27 152.39 370.05 144.47 370.05" style="fill:#e0e0e0"></polygon><polygon points="179.56 370.05 195.52 448.27 191.83 448.27 171.64 370.05 179.56 370.05" style="fill:#ebebeb"></polygon><path d="M130.16,253.84l22.26,108H169.5l-17.86-95.45a15.37,15.37,0,0,0-15.11-12.58Z" style="fill:#ebebeb"></path><rect x="522.42" y="284.64" width="62.69" height="3.05" style="fill:#ebebeb"></rect><polygon points="512.71 287.69 500.95 243.63 549.9 243.63 560.55 287.69 512.71 287.69" style="fill:#ebebeb"></polygon><polygon points="557.61 284.36 513.88 284.36 503.7 245.66 547.66 245.66 557.61 284.36" style="fill:#e0e0e0"></polygon><rect x="637.91" y="296.72" width="3.17" height="151.48" transform="translate(1278.98 744.93) rotate(180)" style="fill:#f5f5f5"></rect><rect x="634.74" y="297.16" width="3.17" height="151.05" transform="translate(1272.64 745.36) rotate(180)" style="fill:#ebebeb"></rect><rect x="442.85" y="296.72" width="3.17" height="152.97" transform="translate(888.87 746.41) rotate(180)" style="fill:#ebebeb"></rect><rect x="439.68" y="297.16" width="3.17" height="152.53" transform="translate(882.53 746.85) rotate(180)" style="fill:#e0e0e0"></rect><rect x="414.25" y="287.94" width="240.49" height="12.4" transform="translate(1068.99 588.28) rotate(180)" style="fill:#e0e0e0"></rect><rect x="444.43" y="300.34" width="105.87" height="20.52" transform="translate(994.74 621.2) rotate(180)" style="fill:#ebebeb"></rect><path d="M492.65,309.18a2.36,2.36,0,1,0,2.36-2.36A2.36,2.36,0,0,0,492.65,309.18Z" style="fill:#e0e0e0"></path><path d="M580.34,362H538.75a5.29,5.29,0,0,1-5.29-5.3V343.88a8.92,8.92,0,0,1,8.92-8.93h38.27Z" style="fill:#ebebeb"></path><path d="M539.45,370.05h81.77a4,4,0,0,0,4-4h0a4,4,0,0,0-4-4H539.45a4,4,0,0,0-4,4h0A4,4,0,0,0,539.45,370.05Z" style="fill:#ebebeb"></path><path d="M637.88,254.64l-45-.8L564.34,361.76l60.91.61,23-94.61A10.62,10.62,0,0,0,637.88,254.64Z" style="fill:#e0e0e0"></path><polygon points="615.48 370.05 628.93 448.27 625.25 448.27 607.55 370.05 615.48 370.05" style="fill:#ebebeb"></polygon><polygon points="583.74 370.05 598.05 448.27 594.36 448.27 575.82 370.05 583.74 370.05" style="fill:#e0e0e0"></polygon><polygon points="548.65 370.05 532.69 448.27 536.38 448.27 556.57 370.05 548.65 370.05" style="fill:#ebebeb"></polygon><path d="M598.05,253.84l-22.26,108H558.71l17.85-95.45a15.38,15.38,0,0,1,15.12-12.58Z" style="fill:#ebebeb"></path><rect x="539.05" y="138.88" width="2.3" height="20.56" style="fill:#e0e0e0"></rect><rect x="614.76" y="138.88" width="2.3" height="20.56" style="fill:#e0e0e0"></rect><rect x="530.56" y="130.62" width="96.28" height="8.26" style="fill:#ebebeb"></rect><rect x="594.55" y="68.75" width="13.27" height="61.87" style="fill:#f5f5f5"></rect><path d="M604.09,115.78a2.63,2.63,0,1,1-2.63-2.63A2.62,2.62,0,0,1,604.09,115.78Z" style="fill:#e0e0e0"></path><rect x="599.31" y="85.14" width="4.06" height="25.28" style="fill:#e0e0e0"></rect><rect x="581.07" y="68.75" width="13.27" height="61.87" style="fill:#ebebeb"></rect><path d="M590.6,115.78a2.63,2.63,0,1,1-2.63-2.63A2.62,2.62,0,0,1,590.6,115.78Z" style="fill:#fafafa"></path><rect x="585.83" y="85.14" width="4.06" height="25.28" style="fill:#fafafa"></rect><rect x="568.23" y="68.75" width="13.27" height="61.87" style="fill:#e0e0e0"></rect><path d="M577.76,115.78a2.63,2.63,0,1,1-2.63-2.63A2.62,2.62,0,0,1,577.76,115.78Z" style="fill:#fafafa"></path><rect x="572.99" y="85.14" width="4.06" height="25.28" style="fill:#fafafa"></rect><polygon points="551.81 129.68 567.76 75.25 562.26 72.84 545.9 127.7 551.81 129.68" style="fill:#e0e0e0"></polygon></g><g id="freepik--Floor--inject-294"><path d="M674.39,449.29c0,.15-134.92.26-301.32.26s-301.34-.11-301.34-.26S206.62,449,373.07,449,674.39,449.15,674.39,449.29Z" style="fill:#263238"></path></g><g id="freepik--character-2--inject-294"><path d="M491.22,172.29,474,170.92c-.1-2,0-9.77,0-9.77s-7.15-1.11-7.24-8.26S468,129.32,468,129.32h0a24.83,24.83,0,0,1,25,3.14l1.06.81Z" style="fill:#ffbe9d"></path><path d="M469.63,141.61a1.05,1.05,0,0,0,.07-1.47,1,1,0,1,0-.07,1.47Z" style="fill:#263238"></path><path d="M467.89,140c.12.13.82-.41,1.8-.42s1.7.51,1.81.38-.06-.28-.37-.52a2.44,2.44,0,0,0-2.88,0C467.94,139.69,467.84,139.92,467.89,140Z" style="fill:#263238"></path><path d="M479.24,140.83a1,1,0,1,0,1.43.34A1,1,0,0,0,479.24,140.83Z" style="fill:#263238"></path><path d="M478.59,140.84c.11.13.81-.42,1.8-.42s1.7.5,1.81.38-.06-.28-.37-.52a2.42,2.42,0,0,0-1.45-.45,2.3,2.3,0,0,0-1.43.49C478.64,140.56,478.54,140.79,478.59,140.84Z" style="fill:#263238"></path><path d="M474.64,149a4.68,4.68,0,0,0-1.59-.34c-.26,0-.46-.09-.48-.23a1.34,1.34,0,0,1,.18-.73l.78-2a27.52,27.52,0,0,0,1.69-5.26,27.75,27.75,0,0,0-2.21,5.07c-.26.69-.5,1.36-.74,2a1.7,1.7,0,0,0-.14,1.07.68.68,0,0,0,.44.42,1.51,1.51,0,0,0,.44.05A5.06,5.06,0,0,0,474.64,149Z" style="fill:#263238"></path><path d="M477.84,150.05a18.36,18.36,0,0,1-4.83,1.41,2.71,2.71,0,0,0,3.21,1.08C478.36,151.76,477.84,150.05,477.84,150.05Z" style="fill:#fff"></path><path d="M474.06,161.05a16.69,16.69,0,0,0,9.32-2.65s-2.2,5.14-9.34,4.5Z" style="fill:#eb996e"></path><path d="M467.83,131.12s4.19,2.42,10,0c3.85-1.58,8.23-2.16,9.13-1.35s.81,4.65,4.4,6c0,0-.79,7.26,2.14,7.22s1.94-11.46,1.94-11.46l-6.85-4-7.65-2-7.38.49-5.77,1.13Z" style="fill:#263238"></path><path d="M493.13,140.68c.12-.05,4.91-1.45,4.76,3.43s-5,3.73-5,3.59S493.13,140.68,493.13,140.68Z" style="fill:#ffbe9d"></path><path d="M494.4,145.89s.09.06.23.14a.9.9,0,0,0,.64,0,2.1,2.1,0,0,0,1-1.86,2.75,2.75,0,0,0-.2-1.23,1,1,0,0,0-.62-.67.44.44,0,0,0-.51.22c-.07.13,0,.23-.07.24s-.1-.09,0-.29a.5.5,0,0,1,.2-.3.66.66,0,0,1,.47-.11,1.21,1.21,0,0,1,.87.79,2.89,2.89,0,0,1,.25,1.37,2.2,2.2,0,0,1-1.31,2.07.9.9,0,0,1-.77-.15C494.41,146,494.39,145.9,494.4,145.89Z" style="fill:#eb996e"></path><path d="M472.68,138.37c-.16.28-1.09,0-2.21,0s-2.08.09-2.21-.21.83-1,2.26-.94S472.85,138.11,472.68,138.37Z" style="fill:#263238"></path><path d="M483.65,138.37c-.16.28-1.09,0-2.21,0s-2.08.09-2.21-.21.83-1,2.26-.94S483.82,138.11,483.65,138.37Z" style="fill:#263238"></path><path d="M488.79,130.81a17,17,0,0,0,2.84,3.3,5.67,5.67,0,0,0,4,1.41,3.45,3.45,0,0,0,3.09-2.63,2.5,2.5,0,0,0-2.43-2.9,1.52,1.52,0,1,0-.53-2.81c1.25-.07,1.64-2,.77-2.9a3.65,3.65,0,0,0-3.54-.6,21.44,21.44,0,0,1-3.62,1c-2,.17-3.82-.88-5.38-2.08a23,23,0,0,0-4.82-3.37,11,11,0,0,0-7.11-.16,11.38,11.38,0,0,0-5.21,2.86,6.69,6.69,0,0,0-2,5.46,4.77,4.77,0,0,0,3.84,4.07,12.93,12.93,0,0,0,8.4-1.2c4-2.22,11.61-.87,11.61-.87Z" style="fill:#263238"></path><path d="M496.25,126.07a1,1,0,0,1-.31.18,8.3,8.3,0,0,1-.93.42,15.52,15.52,0,0,1-3.67.93,16.58,16.58,0,0,1-5.6-.19,40.3,40.3,0,0,1-6.47-2.25,14.3,14.3,0,0,0-6.52-1.21,6.36,6.36,0,0,0-4.61,2.46,4.77,4.77,0,0,0-.81,3.45,8.49,8.49,0,0,0,.39,1.3s-.09-.09-.22-.29a3.38,3.38,0,0,1-.37-1,4.88,4.88,0,0,1,.71-3.7,6.67,6.67,0,0,1,4.86-2.73,14.3,14.3,0,0,1,6.76,1.21,42.79,42.79,0,0,0,6.38,2.26,17.4,17.4,0,0,0,5.46.3A26,26,0,0,0,496.25,126.07Z" style="fill:#455a64"></path><path d="M497.45,133.81c.05,0-.17.48-.77,1a5,5,0,0,1-5.84.49c-.68-.43-1-.84-.93-.88s.43.24,1.1.55a5.34,5.34,0,0,0,5.45-.46C497.07,134.11,497.39,133.76,497.45,133.81Z" style="fill:#455a64"></path><path d="M496.25,131.23c.12.07-.37.9-1.38,1.42s-2,.44-2,.3.83-.29,1.73-.76S496.14,131.13,496.25,131.23Z" style="fill:#455a64"></path><path d="M465,134c-.06,0-.17-.25-.15-.69a2.76,2.76,0,0,1,.64-1.57,2.64,2.64,0,0,1,1.45-.87c.43-.09.69,0,.7,0s-1,.29-1.75,1.17S465.19,134,465,134Z" style="fill:#263238"></path><path d="M463.44,126.78a19.45,19.45,0,0,0,1.64,2.52,18.63,18.63,0,0,0,2.36,1.88,3.9,3.9,0,0,1-2.74-1.53A4,4,0,0,1,463.44,126.78Z" style="fill:#455a64"></path><path d="M398.69,215.53s21.27,27,31.6,22,28.86-22,28.86-22l-10.26-10.3L428.11,223.5,402.5,208.92Z" style="fill:#ffbe9d"></path><path d="M507.76,256.23l-54.23-2.57c-.14-5.93,2.36-47.92,2.36-47.92l-3,5.58-15.46-13.78L451,179.29a26.76,26.76,0,0,1,17.88-10.58c2.1-.28,3.69-.42,4.73-.55a30.38,30.38,0,0,0,18.32,0h0a25,25,0,0,1,7.59,1.45,31.25,31.25,0,0,1,12.11,7.84h0l16.17,27.17L508.16,217l-2.82-8.55Z" style="fill:#455a64"></path><path d="M524.12,439.61l1.7,7.15s11.71,15.21,15.32,14.46c2.37-.48-.54-4.45-5-16l-.94-4.77Z" style="fill:#FFC100"></path><path d="M541.62,459a.84.84,0,0,1-.1.21,1.29,1.29,0,0,1-.49.46,1.89,1.89,0,0,1-1,.23,2.72,2.72,0,0,1-1.33-.49,56.75,56.75,0,0,1-5.89-5.49,75.75,75.75,0,0,1-5.24-6.13c-.62-.83-1.11-1.5-1.44-2l-.37-.55a1.23,1.23,0,0,1-.12-.2,1.23,1.23,0,0,1,.12.2l.41.52,1.49,1.93c1.28,1.61,3.11,3.79,5.27,6.07a68.1,68.1,0,0,0,5.82,5.52,2.16,2.16,0,0,0,2.24.31A1.68,1.68,0,0,0,541.62,459Z" style="fill:#263238"></path><path d="M540,454.09s-.37,0-1,.05a5.6,5.6,0,0,0-2.1.8,4.23,4.23,0,0,0-1.58,1.58c-.28.51-.36.87-.4.86a2.13,2.13,0,0,1,.25-.94,4.09,4.09,0,0,1,1.6-1.7A5,5,0,0,1,539,454,1.8,1.8,0,0,1,540,454.09Z" style="fill:#263238"></path><path d="M528.88,450.52s.12-.51.21-1.34a5.53,5.53,0,0,0-.58-3.14,5.19,5.19,0,0,0-2.24-2.25,10.58,10.58,0,0,0-1.27-.47,1.3,1.3,0,0,1,.37,0,3.79,3.79,0,0,1,1,.3,5,5,0,0,1,2.37,2.3,5.31,5.31,0,0,1,.54,3.26,5.09,5.09,0,0,1-.23,1A1,1,0,0,1,528.88,450.52Z" style="fill:#263238"></path><path d="M524.87,440.82a7.53,7.53,0,0,1,.64,2.24c.22,1.27.45,2.27.4,2.29a7.2,7.2,0,0,1-.62-2.25C525.07,441.84,524.81,440.84,524.87,440.82Z" style="fill:#263238"></path><path d="M536.35,446.23c0,.07-.66,0-1.45.23s-1.37.49-1.4.43a2.51,2.51,0,0,1,1.35-.65A2.59,2.59,0,0,1,536.35,446.23Z" style="fill:#263238"></path><path d="M536.59,447.46c0,.06-.56,0-1.21.17s-1.12.45-1.16.39a1.82,1.82,0,0,1,1.11-.62A1.72,1.72,0,0,1,536.59,447.46Z" style="fill:#263238"></path><path d="M537.53,449a5.69,5.69,0,0,0-1.26,0,6.88,6.88,0,0,0-1.16.5,1.56,1.56,0,0,1,1.11-.72A1.52,1.52,0,0,1,537.53,449Z" style="fill:#263238"></path><path d="M535.55,445.72a1.37,1.37,0,0,1-.39-.05,6.39,6.39,0,0,1-1-.28,8.69,8.69,0,0,1-1.46-.64c-.26-.15-.53-.31-.8-.5a1.2,1.2,0,0,1-.59-.9.69.69,0,0,1,.89-.56,1.81,1.81,0,0,1,.82.54,15.17,15.17,0,0,1,1.08,1.18c.28.35.5.64.64.85s.21.34.19.35-.36-.43-1-1.1c-.3-.33-.67-.72-1.1-1.12a1.64,1.64,0,0,0-.72-.48c-.26-.07-.6.07-.61.35s.25.53.49.7a8.5,8.5,0,0,0,.78.5,8.92,8.92,0,0,0,1.41.68C535,445.57,535.56,445.68,535.55,445.72Z" style="fill:#263238"></path><path d="M534.93,445.57a1.27,1.27,0,0,1,0-.36c0-.23,0-.56.07-1a5.64,5.64,0,0,1,.37-1.42,3.16,3.16,0,0,1,.46-.75.8.8,0,0,1,.94-.29.9.9,0,0,1,.32.93,3.44,3.44,0,0,1-.25.84,4.23,4.23,0,0,1-.84,1.2,4.94,4.94,0,0,1-.75.64,1,1,0,0,1-.31.18s.4-.32.94-.93a4.38,4.38,0,0,0,.76-1.17,2.89,2.89,0,0,0,.23-.79c0-.26,0-.59-.21-.7s-.48,0-.66.25a3.29,3.29,0,0,0-.44.68,5.92,5.92,0,0,0-.4,1.35A10.23,10.23,0,0,1,534.93,445.57Z" style="fill:#263238"></path><g style="opacity:0.4"><path d="M525.82,446.76l-.82-3.44s2.87.53,3.61,2.68a8.88,8.88,0,0,1,.56,3.67l6.24,6.72s1.56-3.06,4.39-2.32c0,0,2.23,4.9,2.16,6.13s-1.49,1.08-2,.85a25.47,25.47,0,0,1-5.58-4.41A129.23,129.23,0,0,1,525.82,446.76Z"></path></g><path d="M465.93,443.22l-.05-9.54,17.88-.22.22,14-1.1.09c-4.94.33-25.1,1.35-28.41.39C450.78,446.83,465.93,443.22,465.93,443.22Z" style="fill:#FFC100"></path><g style="opacity:0.4"><path d="M477.5,447.36a6.27,6.27,0,0,1,2.23-3.84,6.09,6.09,0,0,1,4.17-1.35l.06,5Z"></path></g><path d="M458.53,445.25s-5.3,1.6-4.63,2.47,21.09.61,30.08-.3l0-.39-23.81.5S459.57,445.28,458.53,445.25Z" style="opacity:0.4"></path><path d="M484.23,447l-.31,0-.88.06-3.25.18c-2.74.14-6.53.27-10.72.33s-8,0-10.74,0l-3.25-.09-.88,0-.31,0,.31,0h.88l3.26,0c2.74,0,6.53,0,10.72,0s8-.17,10.73-.26L483,447l.88,0Z" style="fill:#263238"></path><path d="M460.15,447.81a7.59,7.59,0,0,0-.63-1.54A6.81,6.81,0,0,0,458.4,445a2.39,2.39,0,0,1,1.31,1.11A2.44,2.44,0,0,1,460.15,447.81Z" style="fill:#263238"></path><path d="M465.39,445.07c-.05,0-.31-.28-.57-.68s-.44-.77-.39-.8.3.27.57.68S465.44,445,465.39,445.07Z" style="fill:#263238"></path><path d="M466.83,444.28c0,.05-.32-.14-.64-.41s-.53-.53-.49-.58.32.14.64.42S466.87,444.24,466.83,444.28Z" style="fill:#263238"></path><path d="M467.72,442.58a2.05,2.05,0,0,1-.93.13.47.47,0,1,1,.93-.13Z" style="fill:#263238"></path><path d="M468,441.39a1.85,1.85,0,0,1-1,.31,1.72,1.72,0,0,1-1.07-.13,6,6,0,0,1,1.06-.08A5.46,5.46,0,0,1,468,441.39Z" style="fill:#263238"></path><path d="M464.77,443.51a3,3,0,0,1-1.15,0,7.46,7.46,0,0,1-1.23-.25,3.65,3.65,0,0,1-.7-.28.59.59,0,0,1-.29-.36.47.47,0,0,1,.16-.46,2.11,2.11,0,0,1,2.62.59,1.91,1.91,0,0,1,.38.76.73.73,0,0,1,0,.31,3.41,3.41,0,0,0-.54-1,2.08,2.08,0,0,0-1-.62,1.77,1.77,0,0,0-1.37.11c-.18.14-.1.35.1.47a3.71,3.71,0,0,0,.65.27,8.84,8.84,0,0,0,1.19.29C464.33,443.48,464.76,443.48,464.77,443.51Z" style="fill:#263238"></path><path d="M464.47,443.57s-.19-.27-.14-.79a1.82,1.82,0,0,1,.3-.85,1.14,1.14,0,0,1,.95-.59.46.46,0,0,1,.36.52,1.34,1.34,0,0,1-.19.52,3.86,3.86,0,0,1-.53.7c-.36.36-.64.5-.66.47s.23-.2.54-.57a3.55,3.55,0,0,0,.47-.7c.16-.24.26-.68,0-.73s-.57.27-.75.5a2,2,0,0,0-.31.75A4.62,4.62,0,0,0,464.47,443.57Z" style="fill:#263238"></path><path d="M483.8,442.12s-.51,0-1.32.07a5.59,5.59,0,0,0-4.63,3.79c-.27.77-.29,1.28-.33,1.28a1.12,1.12,0,0,1,0-.36,4.74,4.74,0,0,1,.18-1,5.44,5.44,0,0,1,4.77-3.9,5,5,0,0,1,1,0A1.29,1.29,0,0,1,483.8,442.12Z" style="fill:#263238"></path><path d="M481.86,434.71a33.82,33.82,0,0,1,.2,3.67,30.74,30.74,0,0,1,0,3.67,61.33,61.33,0,0,1-.18-7.34Z" style="fill:#263238"></path><path d="M475.23,445.65a10.57,10.57,0,0,1-2.61.29,10.15,10.15,0,0,1-2.62-.18c0-.06,1.18,0,2.62,0S475.22,445.59,475.23,445.65Z" style="fill:#263238"></path><path d="M478.73,445.6s-.09.25-.21.52-.18.5-.24.5-.09-.28,0-.59S478.69,445.56,478.73,445.6Z" style="fill:#263238"></path><path d="M480,443.94s-.07.23-.25.42-.37.31-.41.27.07-.23.25-.42S480,443.9,480,443.94Z" style="fill:#263238"></path><path d="M481.91,443.16c0,.06-.25.06-.51.16s-.45.24-.5.2.1-.29.43-.4S481.93,443.11,481.91,443.16Z" style="fill:#263238"></path><path d="M483.25,442.79c0,.06-.08.15-.23.21s-.28.06-.3,0,.08-.15.22-.21S483.23,442.74,483.25,442.79Z" style="fill:#263238"></path><polyline points="453.76 253.66 462.11 439.11 489.95 439.69 485.33 284.44 516.64 440.88 543.12 440.88 507.76 253.66" style="fill:#263238"></polyline><polygon points="515.27 438.36 515.9 441.1 543.12 441.47 542.7 437.18 515.27 438.36" style="fill:#455a64"></polygon><path d="M485.15,438.08c.16,0,.3.35.33.81s-.09.83-.25.84-.3-.35-.33-.81S485,438.08,485.15,438.08Z" style="fill:#455a64"></path><path d="M484.87,431.36c.16,0,.32.74.35,1.67s-.06,1.69-.22,1.69-.32-.74-.35-1.67S484.71,431.37,484.87,431.36Z" style="fill:#455a64"></path><path d="M484.67,424.64c.16,0,.31.75.34,1.68s-.08,1.68-.24,1.68-.31-.74-.34-1.67S484.51,424.65,484.67,424.64Z" style="fill:#455a64"></path><path d="M484.51,417.92c.16,0,.3.75.33,1.67s-.09,1.69-.25,1.69-.31-.74-.33-1.67S484.35,417.92,484.51,417.92Z" style="fill:#455a64"></path><path d="M484.35,411.19c.15,0,.3.75.32,1.68s-.08,1.68-.24,1.69-.31-.75-.33-1.68S484.19,411.2,484.35,411.19Z" style="fill:#455a64"></path><path d="M484.16,404.47c.15,0,.31.74.33,1.67s-.07,1.69-.23,1.69-.31-.74-.34-1.67S484,404.47,484.16,404.47Z" style="fill:#455a64"></path><path d="M483.9,397.75c.15,0,.32.74.36,1.66s-.06,1.69-.22,1.7-.32-.74-.36-1.67S483.74,397.75,483.9,397.75Z" style="fill:#455a64"></path><path d="M483.62,391c.16,0,.32.74.36,1.67s-.07,1.68-.22,1.69-.32-.74-.36-1.67S483.46,391,483.62,391Z" style="fill:#455a64"></path><path d="M483.38,384.31c.16,0,.31.74.35,1.67s-.07,1.68-.23,1.69-.32-.74-.35-1.67S483.22,384.31,483.38,384.31Z" style="fill:#455a64"></path><path d="M483.17,377.59c.15,0,.31.74.33,1.67s-.07,1.68-.23,1.69-.31-.75-.34-1.67S483,377.59,483.17,377.59Z" style="fill:#455a64"></path><path d="M483,370.87c.15,0,.3.74.33,1.67s-.09,1.68-.25,1.69-.31-.75-.33-1.67S482.83,370.87,483,370.87Z" style="fill:#455a64"></path><path d="M482.84,364.14c.16,0,.3.75.32,1.68s-.09,1.68-.25,1.69-.31-.75-.32-1.68S482.68,364.15,482.84,364.14Z" style="fill:#455a64"></path><path d="M482.73,357.42c.15,0,.3.75.31,1.68s-.1,1.68-.26,1.68-.3-.74-.32-1.67S482.57,357.42,482.73,357.42Z" style="fill:#455a64"></path><path d="M482.65,350.7c.16,0,.29.75.3,1.68s-.11,1.68-.27,1.68-.29-.75-.3-1.68S482.49,350.7,482.65,350.7Z" style="fill:#455a64"></path><path d="M482.61,344c.16,0,.29.76.29,1.68s-.12,1.69-.28,1.69-.29-.75-.29-1.68S482.45,344,482.61,344Z" style="fill:#455a64"></path><path d="M482.6,337.25c.16,0,.29.75.29,1.68s-.13,1.68-.29,1.68-.29-.75-.29-1.68S482.44,337.25,482.6,337.25Z" style="fill:#455a64"></path><path d="M482.63,330.53c.16,0,.29.75.28,1.68s-.14,1.68-.3,1.68-.28-.76-.27-1.68S482.47,330.53,482.63,330.53Z" style="fill:#455a64"></path><path d="M482.7,323.8c.16,0,.28.76.27,1.69s-.15,1.68-.31,1.67-.28-.75-.27-1.68S482.54,323.8,482.7,323.8Z" style="fill:#455a64"></path><path d="M482.81,317.08c.16,0,.27.76.26,1.69s-.16,1.67-.32,1.67-.27-.76-.26-1.68S482.65,317.08,482.81,317.08Z" style="fill:#455a64"></path><path d="M482.94,310.35c.16,0,.28.76.26,1.69s-.17,1.68-.33,1.68-.27-.76-.25-1.69S482.79,310.35,482.94,310.35Z" style="fill:#455a64"></path><path d="M483.15,303.63c.16,0,.26.76.23,1.69S483.19,307,483,307s-.26-.76-.22-1.69S483,303.62,483.15,303.63Z" style="fill:#455a64"></path><path d="M483.51,296.91c.16,0,.24.77.18,1.69s-.23,1.67-.38,1.67-.25-.77-.19-1.7S483.35,296.9,483.51,296.91Z" style="fill:#455a64"></path><path d="M484.1,290.21c.16,0,.21.78.12,1.7s-.29,1.66-.45,1.64-.21-.77-.12-1.7S483.94,290.19,484.1,290.21Z" style="fill:#455a64"></path><path d="M484.74,285.23c.15,0,.23.41.17.87s-.25.8-.41.78-.23-.41-.16-.87S484.58,285.21,484.74,285.23Z" style="fill:#455a64"></path><polygon points="461.38 440.01 490.83 440.49 490.6 435.58 461.38 435.74 461.38 440.01" style="fill:#455a64"></polygon><path d="M537.57,435.67c.15,0,.34.32.41.77s0,.84-.15.87-.34-.32-.41-.78S537.41,435.7,537.57,435.67Z" style="fill:#455a64"></path><path d="M536.51,429.22c.16,0,.41.68.55,1.57s.14,1.63,0,1.66-.4-.68-.55-1.57S536.36,429.25,536.51,429.22Z" style="fill:#455a64"></path><path d="M535.45,422.78c.16,0,.4.67.55,1.56s.14,1.64,0,1.66-.4-.67-.55-1.56S535.29,422.81,535.45,422.78Z" style="fill:#455a64"></path><path d="M534.38,416.34c.15,0,.4.67.55,1.56s.14,1.63,0,1.66-.4-.68-.55-1.56S534.22,416.36,534.38,416.34Z" style="fill:#455a64"></path><path d="M533.29,409.9c.16,0,.41.67.56,1.56s.14,1.63,0,1.66-.4-.68-.55-1.57S533.13,409.92,533.29,409.9Z" style="fill:#455a64"></path><path d="M532.2,403.46c.15,0,.4.67.56,1.56s.14,1.63,0,1.66-.41-.68-.56-1.57S532,403.48,532.2,403.46Z" style="fill:#455a64"></path><path d="M531.09,397c.16,0,.41.67.56,1.56s.15,1.63,0,1.66-.41-.67-.56-1.56S530.94,397.05,531.09,397Z" style="fill:#455a64"></path><path d="M530,390.58c.16,0,.41.67.56,1.56s.15,1.63,0,1.66-.41-.67-.56-1.56S529.82,390.61,530,390.58Z" style="fill:#455a64"></path><path d="M528.86,384.15c.15,0,.41.67.56,1.56s.16,1.63,0,1.66-.41-.67-.57-1.56S528.7,384.18,528.86,384.15Z" style="fill:#455a64"></path><path d="M527.72,377.72c.16,0,.41.67.57,1.55s.16,1.64,0,1.66-.41-.67-.57-1.55S527.56,377.74,527.72,377.72Z" style="fill:#455a64"></path><path d="M526.58,371.29c.15,0,.41.67.57,1.55s.16,1.63,0,1.66-.41-.67-.57-1.56S526.42,371.31,526.58,371.29Z" style="fill:#455a64"></path><path d="M525.42,364.86c.16,0,.42.67.58,1.55s.16,1.63,0,1.66-.41-.67-.57-1.55S525.27,364.89,525.42,364.86Z" style="fill:#455a64"></path><path d="M524.26,358.43c.15,0,.41.67.57,1.56s.17,1.63,0,1.65-.41-.66-.57-1.55S524.1,358.46,524.26,358.43Z" style="fill:#455a64"></path><path d="M523.08,352c.16,0,.42.66.58,1.55s.17,1.63,0,1.66-.41-.67-.57-1.56S522.93,352,523.08,352Z" style="fill:#455a64"></path><path d="M521.9,345.58c.16,0,.42.67.58,1.56s.17,1.62,0,1.65-.41-.66-.58-1.55S521.74,345.61,521.9,345.58Z" style="fill:#455a64"></path><path d="M520.71,339.16c.15,0,.41.67.58,1.55s.17,1.63,0,1.66-.41-.66-.58-1.55S520.55,339.19,520.71,339.16Z" style="fill:#455a64"></path><path d="M519.5,332.74c.16,0,.42.67.59,1.55s.17,1.63,0,1.66-.41-.66-.58-1.55S519.35,332.77,519.5,332.74Z" style="fill:#455a64"></path><path d="M518.29,326.32c.15,0,.42.67.58,1.55s.18,1.63,0,1.66-.42-.66-.59-1.55S518.13,326.35,518.29,326.32Z" style="fill:#455a64"></path><path d="M517.06,319.91c.16,0,.42.66.59,1.55s.18,1.63,0,1.66-.42-.67-.59-1.55S516.91,319.94,517.06,319.91Z" style="fill:#455a64"></path><path d="M515.83,313.49c.15,0,.42.67.59,1.55s.18,1.63,0,1.66-.42-.66-.6-1.55S515.67,313.52,515.83,313.49Z" style="fill:#455a64"></path><path d="M514.58,307.08c.16,0,.43.66.6,1.55s.18,1.63,0,1.66-.42-.66-.6-1.55S514.43,307.11,514.58,307.08Z" style="fill:#455a64"></path><path d="M513.33,300.67c.16,0,.42.66.6,1.55s.18,1.63,0,1.66-.43-.67-.6-1.55S513.17,300.7,513.33,300.67Z" style="fill:#455a64"></path><path d="M512.06,294.26c.16,0,.43.67.6,1.55s.19,1.63,0,1.66-.43-.66-.6-1.55S511.91,294.3,512.06,294.26Z" style="fill:#455a64"></path><path d="M510.79,287.86c.16,0,.43.66.6,1.54s.19,1.63,0,1.66-.43-.66-.6-1.54S510.63,287.89,510.79,287.86Z" style="fill:#455a64"></path><path d="M509.51,281.45c.15,0,.42.66.6,1.55s.2,1.62,0,1.66-.43-.66-.6-1.55S509.35,281.49,509.51,281.45Z" style="fill:#455a64"></path><path d="M508.21,275.05c.16,0,.43.66.61,1.55s.2,1.62,0,1.65-.43-.66-.61-1.54S508.06,275.08,508.21,275.05Z" style="fill:#455a64"></path><path d="M507.23,270.23c.15,0,.36.3.45.75s0,.84-.12.87-.36-.3-.45-.75S507.07,270.26,507.23,270.23Z" style="fill:#455a64"></path><path d="M408.42,156s-20.27,15-14,37.74,20.61,25.15,27.6,28,23.76,7.68,31.8,18.16l26.9-20.61a90,90,0,0,1-10.48-33.54c-2.1-19.57-10.48-28.65-17.12-32.84S428.33,139.6,408.42,156Z" style="fill:#FFC100"></path><path d="M470.72,225.65l-.39-.36-1.13-1.1-4.3-4.26c-3.69-3.73-9.07-9.11-15.26-16.19-1.53-1.78-3.13-3.65-4.73-5.66s-3.27-4.08-4.8-6.4a22.48,22.48,0,0,1-3.48-7.86,12.69,12.69,0,0,1,1.32-8.94,8.56,8.56,0,0,1,8.36-4,6.42,6.42,0,0,1,4.3,2.52,8.16,8.16,0,0,1,1.49,4.88,11.14,11.14,0,0,1-1.3,5,21.41,21.41,0,0,1-3,4.29,60.38,60.38,0,0,1-7.76,7.29,61.5,61.5,0,0,1-8.85,5.92,19.85,19.85,0,0,1-4.92,1.83,12.92,12.92,0,0,1-5.18.1,9.7,9.7,0,0,1-4.62-2.15,7.53,7.53,0,0,1-2.47-4.34,6.74,6.74,0,0,1,.78-4.82,6,6,0,0,1,4-2.66,9,9,0,0,1,4.66.31,12.29,12.29,0,0,1,3.92,2.29,50.8,50.8,0,0,1,5.77,6.36l9.77,11.85L457,226.7c1.65,2,2.94,3.59,3.82,4.68l1,1.23c.22.28.32.43.32.43s-.13-.13-.36-.4l-1-1.19-3.89-4.62-14.26-17.08L432.73,198a50.34,50.34,0,0,0-5.73-6.29,12,12,0,0,0-3.76-2.2,8.49,8.49,0,0,0-4.42-.28,5.52,5.52,0,0,0-3.64,2.45,6.23,6.23,0,0,0-.71,4.47,7.06,7.06,0,0,0,2.31,4.05,9.25,9.25,0,0,0,4.39,2,15,15,0,0,0,9.76-1.89,60.7,60.7,0,0,0,8.77-5.87,59.31,59.31,0,0,0,7.69-7.22,20.69,20.69,0,0,0,2.95-4.18,10.54,10.54,0,0,0,1.25-4.78,7.74,7.74,0,0,0-1.38-4.58,5.86,5.86,0,0,0-4-2.32,8.07,8.07,0,0,0-7.88,3.79,12.26,12.26,0,0,0-1.28,8.61,21.93,21.93,0,0,0,3.39,7.7c1.5,2.3,3.17,4.38,4.75,6.39s3.18,3.89,4.7,5.67c6.14,7.1,11.48,12.52,15.13,16.29l4.22,4.33,1.09,1.13C470.61,225.51,470.72,225.65,470.72,225.65Z" style="fill:#263238"></path><polygon points="453.53 239.49 480.34 218.55 493.58 235.46 492.82 250.82 482.76 259.13 465.99 255.27 453.53 239.49" style="fill:#e0e0e0"></polygon><path d="M492.82,250.82a9.18,9.18,0,0,0-7.1,1.91,9,9,0,0,0-3.12,6.57Z" style="fill:#455a64"></path><path d="M491.8,234.61a8.36,8.36,0,0,1-1.31.32,36.07,36.07,0,0,0-3.51.94,33,33,0,0,0-18.39,14.51c-.79,1.32-1.36,2.43-1.73,3.21a6.91,6.91,0,0,1-.61,1.19,6.07,6.07,0,0,1,.43-1.28,26.33,26.33,0,0,1,1.59-3.3,31.37,31.37,0,0,1,18.6-14.69,28.07,28.07,0,0,1,3.59-.78A6.34,6.34,0,0,1,491.8,234.61Z" style="fill:#263238"></path><path d="M488.69,230.42a7.14,7.14,0,0,1-1.31.32,36.07,36.07,0,0,0-3.51.94,32.94,32.94,0,0,0-18.39,14.52c-.79,1.31-1.36,2.42-1.73,3.2a6.91,6.91,0,0,1-.61,1.19,5.91,5.91,0,0,1,.43-1.27,26.34,26.34,0,0,1,1.59-3.31,31.3,31.3,0,0,1,18.6-14.68,26.75,26.75,0,0,1,3.59-.79A6.34,6.34,0,0,1,488.69,230.42Z" style="fill:#263238"></path><path d="M485.49,226.62a7.14,7.14,0,0,1-1.31.32,36.07,36.07,0,0,0-3.51.94,32.94,32.94,0,0,0-18.39,14.52c-.79,1.31-1.36,2.42-1.73,3.2a6.91,6.91,0,0,1-.61,1.19,5.91,5.91,0,0,1,.43-1.27,25.69,25.69,0,0,1,1.59-3.31,31.37,31.37,0,0,1,18.6-14.69,28.07,28.07,0,0,1,3.59-.78A6.34,6.34,0,0,1,485.49,226.62Z" style="fill:#263238"></path><g style="opacity:0.2"><path d="M430.29,215.53c-.06.7-1.06,1.33-2.93,1.65a19.22,19.22,0,0,1-7.89-.62,29.44,29.44,0,0,1-10.61-5.39,31.38,31.38,0,0,1-12.11-26.26,29.59,29.59,0,0,1,2.8-11.57,19.11,19.11,0,0,1,4.65-6.4c1.46-1.22,2.58-1.57,3.15-1.16,1.23.9-.08,4.43-.78,9.77a40,40,0,0,0-.22,9.2A30.52,30.52,0,0,0,415.21,204a40.43,40.43,0,0,0,7.14,5.8C426.86,212.72,430.4,214,430.29,215.53Z" style="fill:#fff"></path></g><g style="opacity:0.2"><path d="M446.22,218.55a4.76,4.76,0,1,1-6.9-1.38A5,5,0,0,1,446.22,218.55Z" style="fill:#fff"></path></g><path d="M380.77,186.9c0,.14-5.32.26-11.89.26S357,187,357,186.9s5.32-.26,11.89-.26S380.77,186.75,380.77,186.9Z" style="fill:#263238"></path><path d="M380.76,175.06a71.25,71.25,0,0,1-11.87-3,35.89,35.89,0,0,1,6,1.23A36.39,36.39,0,0,1,380.76,175.06Z" style="fill:#263238"></path><path d="M391.82,164c-.08.12-4.35-2.67-9.53-6.21s-9.31-6.52-9.23-6.64,4.34,2.66,9.53,6.21S391.9,163.85,391.82,164Z" style="fill:#263238"></path><path d="M404.54,149.18a29.84,29.84,0,0,1-4.07-3.71,28.16,28.16,0,0,1-3.71-4.08,29.84,29.84,0,0,1,4.07,3.71A28,28,0,0,1,404.54,149.18Z" style="fill:#263238"></path><path d="M423.35,143.05c-.14.06-2.4-5.33-5.06-12s-4.71-12.18-4.58-12.23,2.4,5.33,5.06,12S423.48,143,423.35,143.05Z" style="fill:#263238"></path><path d="M440.62,139.75a37.47,37.47,0,0,1-.67-6.13,36.6,36.6,0,0,1-.15-6.16,37.47,37.47,0,0,1,.67,6.13A36.6,36.6,0,0,1,440.62,139.75Z" style="fill:#263238"></path><path d="M458.56,122.1c.14,0-1.36,5.32-3.35,11.78s-3.71,11.68-3.85,11.64,1.37-5.32,3.35-11.79S458.43,122.06,458.56,122.1Z" style="fill:#263238"></path><path d="M525.55,206l-16,10.06,2.59,6.8-35.8,14.73-9.8.45-7.23-1.34s-.63.84.58,2.13a10.33,10.33,0,0,0,3.81,1.79l-5.41,4.89,7,8.89,24-5.8c13.29-2.26,44.94-8.6,45.06-17.84C534.48,222.43,525.55,206,525.55,206Z" style="fill:#ffbe9d"></path><path d="M397.12,189.65c.37-1.09,1.27-1.87,2.25-1.35h0a1.73,1.73,0,0,1,.33,1.68l-3.14,10.21h0l3-7.22c.37-1.09,1.36-1.75,2-1.16a1.82,1.82,0,0,1,.24,1.66L399.11,202l2.2-5.29c.46-1.21,1-1.54,1.62-1.27s.63,1.16.48,1.63l-1.87,6.26c.41,1.2,1.79,5,.46,7.11-.07.11.13.46.13.58l.63.72-4.07,3.84c-2.11-1.87-4.05-9.73-4.66-12.71a9.45,9.45,0,0,1,.22-5.1Z" style="fill:#ffbe9d"></path></g><g id="freepik--character-1--inject-294"><path d="M282.7,443.89v-1.53L266,441.54l-.08,6.31,1,.07c4.58.29,23.29,1.17,26.36.27C296.77,447.18,282.7,443.89,282.7,443.89Z" style="fill:#FFC100"></path><g style="opacity:0.5"><path d="M272,447.77a5.79,5.79,0,0,0-2.09-3.56A5.6,5.6,0,0,0,266,443l0,4.64Z" style="fill:#fff"></path></g><path d="M289.57,445.74s4.93,1.47,4.31,2.28-19.57.63-27.92-.17l0-.37,22.09.39S288.6,445.77,289.57,445.74Z" style="fill:#fff;opacity:0.5"></path><path d="M265.73,447.46a1.36,1.36,0,0,0,.29,0l.82.05,3,.16c2.55.12,6.06.23,9.95.27s7.41,0,10-.07l3-.1.82,0a1,1,0,0,0,.28,0h-1.1l-3,0c-2.55,0-6.07,0-9.95,0s-7.41-.13-10-.21l-3-.1h-1.11Z" style="fill:#263238"></path><path d="M288.08,448.12a6.56,6.56,0,0,1,.57-1.43,7.86,7.86,0,0,1,1-1.15,2.28,2.28,0,0,0-1.21,1A2.23,2.23,0,0,0,288.08,448.12Z" style="fill:#263238"></path><path d="M283.21,445.6s.28-.26.52-.64.41-.71.36-.74-.28.26-.52.63S283.16,445.57,283.21,445.6Z" style="fill:#263238"></path><path d="M281.87,444.87s.3-.13.59-.38.49-.5.45-.54-.3.13-.59.39S281.83,444.83,281.87,444.87Z" style="fill:#263238"></path><path d="M281,443.3a2.08,2.08,0,0,0,.87.12,1.82,1.82,0,0,0,.87-.09,2.18,2.18,0,0,0-.87-.11A1.9,1.9,0,0,0,281,443.3Z" style="fill:#263238"></path><path d="M280.75,442.19a1.63,1.63,0,0,0,1,.29,1.68,1.68,0,0,0,1-.12,5,5,0,0,0-1-.08A6.36,6.36,0,0,0,280.75,442.19Z" style="fill:#263238"></path><path d="M283.78,444.15a2.86,2.86,0,0,0,1.07,0,6.22,6.22,0,0,0,1.13-.24,3.54,3.54,0,0,0,.66-.27.53.53,0,0,0,.26-.32.41.41,0,0,0-.15-.43,2,2,0,0,0-2.43.55,1.92,1.92,0,0,0-.35.71c-.05.18,0,.28,0,.28a3,3,0,0,1,.49-.9,1.9,1.9,0,0,1,.92-.58,1.65,1.65,0,0,1,1.27.09c.17.13.1.33-.09.44a3.16,3.16,0,0,1-.6.25,7.73,7.73,0,0,1-1.1.28C284.19,444.12,283.78,444.12,283.78,444.15Z" style="fill:#263238"></path><path d="M284.06,444.21a1.13,1.13,0,0,0,.13-.74,1.75,1.75,0,0,0-.29-.78,1,1,0,0,0-.88-.55.42.42,0,0,0-.33.49,1.31,1.31,0,0,0,.17.47,3.33,3.33,0,0,0,.5.65,1.56,1.56,0,0,0,.61.44s-.21-.19-.5-.53A3.07,3.07,0,0,1,283,443c-.15-.22-.24-.63,0-.68s.54.25.7.46a1.81,1.81,0,0,1,.3.7A5.79,5.79,0,0,1,284.06,444.21Z" style="fill:#263238"></path><path d="M266.11,442.93s.48,0,1.23.05a5.3,5.3,0,0,1,2.66,1.13,5.37,5.37,0,0,1,1.65,2.37,11.29,11.29,0,0,1,.3,1.19s0-.12,0-.33a5.42,5.42,0,0,0-.17-.9,5.21,5.21,0,0,0-1.66-2.49,5.12,5.12,0,0,0-2.78-1.11,5.23,5.23,0,0,0-.91,0C266.23,442.88,266.11,442.91,266.11,442.93Z" style="fill:#263238"></path><path d="M274.08,446.19a13.78,13.78,0,0,0,4.85.05c0-.06-1.09,0-2.43,0S274.09,446.13,274.08,446.19Z" style="fill:#263238"></path><path d="M270.83,446.13s.09.23.19.48.17.47.23.47.09-.26,0-.55S270.87,446.09,270.83,446.13Z" style="fill:#263238"></path><path d="M269.62,444.6s.06.21.23.39.34.28.38.24-.06-.21-.23-.38S269.66,444.56,269.62,444.6Z" style="fill:#263238"></path><path d="M267.87,443.88c0,.06.23.06.48.15s.41.22.46.18-.1-.27-.4-.37S267.86,443.83,267.87,443.88Z" style="fill:#263238"></path><path d="M266.63,443.54c0,.06.07.14.21.2s.26.05.28,0-.07-.14-.21-.19S266.65,443.49,266.63,443.54Z" style="fill:#263238"></path><path d="M302.59,444.62l.05-1.53L286,441.88l-.23,6.31,1,.09c4.56.41,23.25,1.72,26.34.89C316.57,448.25,302.59,444.62,302.59,444.62Z" style="fill:#FFC100"></path><g style="opacity:0.5"><path d="M291.78,448.25a5.73,5.73,0,0,0-2-3.6,5.6,5.6,0,0,0-3.84-1.33l-.15,4.63Z" style="fill:#fff"></path></g><path d="M309.41,446.64s4.89,1.58,4.25,2.38-19.57.17-27.9-.83l0-.37,22.08.91S308.45,446.65,309.41,446.64Z" style="fill:#fff;opacity:0.5"></path><path d="M285.54,447.8l.28,0,.82.07,3,.23c2.54.18,6.06.37,10,.5s7.4.17,9.95.17l3,0,.82,0,.29,0-.29,0-.82,0-3,0c-2.54,0-6.06-.1-9.95-.23s-7.4-.3-9.94-.44l-3-.16-.82,0Z" style="fill:#263238"></path><path d="M307.86,449a7.54,7.54,0,0,1,.61-1.42,7.15,7.15,0,0,1,1.07-1.12,2.23,2.23,0,0,0-1.23,1A2.27,2.27,0,0,0,307.86,449Z" style="fill:#263238"></path><path d="M303.05,446.34c.05,0,.29-.24.55-.62s.42-.7.37-.73-.29.25-.54.62A1.92,1.92,0,0,0,303.05,446.34Z" style="fill:#263238"></path><path d="M301.73,445.59s.31-.13.6-.37.5-.48.47-.53-.31.13-.6.37S301.7,445.55,301.73,445.59Z" style="fill:#263238"></path><path d="M300.94,444a2.06,2.06,0,0,0,.86.13,1.93,1.93,0,0,0,.87-.06,2.06,2.06,0,0,0-.86-.14C301.33,443.91,300.94,443.94,300.94,444Z" style="fill:#263238"></path><path d="M300.68,442.88a1.63,1.63,0,0,0,1,.31,1.55,1.55,0,0,0,1-.1,6.39,6.39,0,0,0-1-.1A6.46,6.46,0,0,0,300.68,442.88Z" style="fill:#263238"></path><path d="M303.66,444.91a2.81,2.81,0,0,0,1.07,0,6.19,6.19,0,0,0,1.14-.21,3.39,3.39,0,0,0,.66-.25.52.52,0,0,0,.27-.32.42.42,0,0,0-.14-.43,2,2,0,0,0-2.44.49,1.84,1.84,0,0,0-.37.7.64.64,0,0,0,0,.29,3,3,0,0,1,.52-.89,1.92,1.92,0,0,1,.93-.57,1.63,1.63,0,0,1,1.26.13c.17.13.1.33-.09.44a4,4,0,0,1-.61.23,7.38,7.38,0,0,1-1.11.25C304.07,444.89,303.66,444.88,303.66,444.91Z" style="fill:#263238"></path><path d="M303.94,445a1.09,1.09,0,0,0,.14-.74,1.64,1.64,0,0,0-.26-.79,1.08,1.08,0,0,0-.87-.57.43.43,0,0,0-.35.48,1.3,1.3,0,0,0,.17.48,3,3,0,0,0,.48.66,1.66,1.66,0,0,0,.6.46s-.21-.2-.49-.55a4.07,4.07,0,0,1-.43-.65c-.14-.23-.22-.64.05-.68s.53.26.68.47a1.72,1.72,0,0,1,.28.71A4.67,4.67,0,0,1,303.94,445Z" style="fill:#263238"></path><path d="M286,443.27s.47,0,1.22.08a5.18,5.18,0,0,1,4.23,3.61c.23.72.24,1.2.28,1.19a1.07,1.07,0,0,0,0-.33,4.26,4.26,0,0,0-.15-.9,5.05,5.05,0,0,0-4.35-3.71,3.87,3.87,0,0,0-.91,0A.9.9,0,0,0,286,443.27Z" style="fill:#263238"></path><path d="M293.92,446.72a9.18,9.18,0,0,0,2.41.3,9.5,9.5,0,0,0,2.43-.13c0-.06-1.09,0-2.42-.07S293.92,446.66,293.92,446.72Z" style="fill:#263238"></path><path d="M290.67,446.59s.08.23.18.48.16.48.21.48.1-.26,0-.55S290.7,446.55,290.67,446.59Z" style="fill:#263238"></path><path d="M289.49,445s.06.22.23.4.33.29.37.25-.06-.21-.22-.39S289.53,445,289.49,445Z" style="fill:#263238"></path><path d="M287.76,444.27c0,.06.23.06.47.16s.42.23.46.19-.09-.27-.39-.38S287.75,444.22,287.76,444.27Z" style="fill:#263238"></path><path d="M286.53,443.9c0,.05.07.14.2.2s.27.06.29,0-.07-.14-.21-.2S286.55,443.85,286.53,443.9Z" style="fill:#263238"></path><path d="M299.63,255.85s13.44,89.31,11.49,93.63-13.61,93.4-13.61,93.4l-33.41-.39s18.52-102.3,18.1-103.95-25.3-89.88-25.3-89.88Z" style="fill:#455a64"></path><path d="M288.56,259.23l-38.05-12.76-1.33,3.15a39,39,0,0,0-.48,29.07l26,68.14A50.48,50.48,0,0,1,278,361.89l4,80.85,26,1.82s-1.84-66.09-1.86-86.83c0-15.64-11.29-65.19-17.61-89.12" style="fill:#455a64"></path><path d="M263.34,317.88a1.62,1.62,0,0,1,.15.3c.09.23.21.52.37.9.32.82.79,2,1.38,3.45,1.19,3,2.89,7.38,5,12.74s4.57,11.81,7.32,18.92a37.28,37.28,0,0,1,1,5.82q.33,3,.59,6.1c.34,4.14.62,8.43.87,12.83,1,17.61,1.41,33.56,1.72,45.11.11,5.75.21,10.41.27,13.67,0,1.59,0,2.84,0,3.72,0,.4,0,.72,0,1a2.06,2.06,0,0,1,0,.33,1.68,1.68,0,0,1,0-.33l0-1c0-.88-.07-2.13-.13-3.71-.11-3.27-.26-7.93-.44-13.67-.4-11.54-.91-27.49-1.87-45.09-.25-4.39-.52-8.69-.86-12.82-.16-2.07-.36-4.1-.58-6.08a37.69,37.69,0,0,0-1-5.72c-2.71-7.13-5.16-13.55-7.21-19s-3.68-9.74-4.83-12.8l-1.29-3.49c-.14-.38-.24-.68-.32-.91A1.73,1.73,0,0,1,263.34,317.88Z" style="fill:#263238"></path><path d="M306.44,377a1.85,1.85,0,0,1,0-.3c0-.23,0-.52,0-.88,0-.81,0-1.94-.05-3.38,0-3,0-7.2-.08-12.42,0-2.63,0-5.5,0-8.58a28,28,0,0,0-.23-4.73c-.3-1.62-.6-3.28-.92-5-1.27-6.82-2.66-14.31-4.12-22.18-2.87-15.73-5.48-30-7.37-40.32-.91-5.14-1.65-9.3-2.17-12.23-.25-1.42-.43-2.53-.57-3.33-.06-.36-.1-.64-.13-.87a1.12,1.12,0,0,1,0-.3,1.94,1.94,0,0,1,.08.29c.05.22.11.51.18.86.16.79.38,1.9.66,3.31.56,2.92,1.36,7.08,2.34,12.2,1.93,10.35,4.59,24.58,7.52,40.3,1.45,7.87,2.83,15.36,4.08,22.19.31,1.7.61,3.37.91,5a29.09,29.09,0,0,1,.2,4.8c0,3.08,0,5.95,0,8.58,0,5.22-.07,9.45-.09,12.42,0,1.44,0,2.57,0,3.38,0,.36,0,.65,0,.88A1.25,1.25,0,0,1,306.44,377Z" style="fill:#263238"></path><path d="M293.05,256.46a3.84,3.84,0,0,1,.77,1.54,11.28,11.28,0,0,1-.45,8.16,4,4,0,0,1-.92,1.45,19.36,19.36,0,0,0,1.39-5.52A18.74,18.74,0,0,0,293.05,256.46Z" style="fill:#263238"></path><path d="M271.91,254.34a2.2,2.2,0,0,1,0,.87,7.66,7.66,0,0,1-.57,2.3,8.73,8.73,0,0,1-2,2.92,8.51,8.51,0,0,1-3.77,2.13,8.41,8.41,0,0,1-4.33-.11,8.65,8.65,0,0,1-3.12-1.63,7.6,7.6,0,0,1-1.59-1.76,2.57,2.57,0,0,1-.39-.78,14.25,14.25,0,0,0,2.2,2.25A8.22,8.22,0,0,0,271,257.36,13.42,13.42,0,0,0,271.91,254.34Z" style="fill:#263238"></path><path d="M273.68,124.48c-11,0-14.31,10-14.93,12.27a21.76,21.76,0,0,0-.23,7c.13,2.34.09,4.8-1,6.85-2.31,4.18-8.58,5.64-9.55,10.32-.64,3.07,1.43,6.31.49,9.31-.8,2.56-3.53,4-4.71,6.44-1.37,2.8-.37,6.12.64,9.06.28.79.65,1.69,1.45,1.95a2.74,2.74,0,0,0,1.55-.12l21.52-5.95" style="fill:#263238"></path><path d="M354.14,222.86l4.23,0c3.85-.38,6-.44,7.09-1.46,1.44-1.37-.54-2.72-.54-2.72s2.79-1,2.52-2.66c-.17-1.16-1.5-1.29-1.5-1.29s2.46-1,2.95-2c.66-1.4-1.07-2.14-1.07-2.14,3.35-2.07,3.05-4.12,2.27-4.32s-3.39,1-3.39,1c-2.21.63-8.24,2.47-6-.85s2.7-6.73,2.18-7.73a1.25,1.25,0,0,0-2.3.57A14.82,14.82,0,0,1,359,203a9.89,9.89,0,0,1-2,2.54c-.95.84-1.78,1.51-2.51,2.07l-3.77,3.64Z" style="fill:#ffbe9d"></path><path d="M367.85,210.6a9.3,9.3,0,0,1-1.88,1.29,19,19,0,0,1-2.22,1.12,12,12,0,0,1-1.4.49,2.34,2.34,0,0,1-.85.09,1.2,1.2,0,0,1-.86-.5,1.49,1.49,0,0,1,.29-1.75,7.26,7.26,0,0,1,1.2-.92l2.05-1.36a9.46,9.46,0,0,1,2-1.15,9.78,9.78,0,0,1-1.75,1.45l-2,1.46a7.25,7.25,0,0,0-1.09.86,1,1,0,0,0-.23,1.13c.19.31.7.32,1.15.2a11.09,11.09,0,0,0,1.34-.45,23.34,23.34,0,0,0,2.23-1A11.17,11.17,0,0,1,367.85,210.6Z" style="fill:#eb996e"></path><path d="M366.49,214.53a5.66,5.66,0,0,1-1.45.85l-1.65.8-1,.46a2.09,2.09,0,0,1-1.28.2,1,1,0,0,1-.62-.46,1.08,1.08,0,0,1-.09-.74,2.27,2.27,0,0,1,.66-1,9.26,9.26,0,0,1,1.44-1.18,3.79,3.79,0,0,1,1.54-.73,11.81,11.81,0,0,1-1.33,1,11.53,11.53,0,0,0-1.3,1.21,1.91,1.91,0,0,0-.51.78.44.44,0,0,0,.35.58c.57.13,1.34-.37,1.94-.59l1.68-.69A5.36,5.36,0,0,1,366.49,214.53Z" style="fill:#eb996e"></path><path d="M365.28,218.11a3.74,3.74,0,0,1-1.59,1,8.05,8.05,0,0,1-2,.56,1.78,1.78,0,0,1-1.32-.31,1.18,1.18,0,0,1-.43-.68,1.09,1.09,0,0,1,.18-.81,3.45,3.45,0,0,1,1.06-.89c.35-.22.7-.44,1-.63.66-.39,1.28-.71,1.8-1a5.75,5.75,0,0,1,1.76-.68,8,8,0,0,1-1.59,1c-.49.29-1.08.64-1.72,1l-1,.65a3.12,3.12,0,0,0-.91.75.57.57,0,0,0,.14.8,1.28,1.28,0,0,0,.95.23,8.54,8.54,0,0,0,1.92-.43C364.63,218.43,365.24,218,365.28,218.11Z" style="fill:#eb996e"></path><path d="M361.07,222.56s-.11.08-.31,0a.92.92,0,0,1-.6-.6,1.4,1.4,0,0,1,.23-1.24,3,3,0,0,1,1.11-.92,9.84,9.84,0,0,1,3.23-1.42,15.57,15.57,0,0,1-3,1.86,3,3,0,0,0-1,.76,1.16,1.16,0,0,0-.26.86C360.63,222.43,361.09,222.5,361.07,222.56Z" style="fill:#eb996e"></path><path d="M302.37,186.78s3.72,11.07,4,11.72c2.26,6,4.82,14.74,7.65,15.8s37.43-6,37.43-6l5.29,18.07S329,236.43,314,236.25c-14.06-.17-18.08-1.77-23-13.12s-10.56-24.4-11.74-31.91" style="fill:#FFC100"></path><path d="M356.73,226.36a8.26,8.26,0,0,1-.82.36c-.53.23-1.34.54-2.38.93-2.08.76-5.12,1.78-8.93,2.89s-8.37,2.33-13.45,3.61a85.94,85.94,0,0,1-16.8,2.94,30.74,30.74,0,0,1-4.51-.12,18.68,18.68,0,0,1-4.3-.9,20.81,20.81,0,0,1-7.05-4.3,42.32,42.32,0,0,1-8.28-11.2c-1.87-3.5-3.15-6.45-4-8.49-.43-1-.76-1.82-1-2.36s-.31-.84-.3-.84a4.56,4.56,0,0,1,.4.8l1.05,2.32c.92,2,2.25,4.93,4.15,8.4a42.82,42.82,0,0,0,8.28,11,20.4,20.4,0,0,0,6.89,4.18,18.67,18.67,0,0,0,4.19.87,31.17,31.17,0,0,0,4.44.11A86.9,86.9,0,0,0,331,233.68c5.08-1.25,9.65-2.42,13.46-3.49s6.87-2,9-2.73l2.41-.83A4.38,4.38,0,0,1,356.73,226.36Z" style="fill:#263238"></path><path d="M317.11,224.42l0,.06c.32-.38.66-.8,1-1.27a7.72,7.72,0,0,0,1.23-2.34,11.84,11.84,0,0,0,.71-3.22,1,1,0,0,1,1.76-.81c.56.73.7,3.53-.59,6.54s3.27.62,5-.22,7-3.19,7.66-2.88c1,.46.66,1.59-1,2.39s-6.61,3.55-6.13,4.41,9-3.53,9-3.53,1.66-1.23,2.25-.25c1.08,1.77-8.29,5.77-9.19,6.13-.63.25-.13,1.2.53.9s8.36-4.57,9.47-2.78c.85,1.37-7.67,3.36-8.78,5.13s6.31-2.16,7.07-.82c.29.5.43.92-4.16,2.56a112.79,112.79,0,0,1-11.95,3Z" style="fill:#ffbe9d"></path><path d="M261.46,172.21l28.21,2.4s10.71-1.76,16.66,24.61l-3.21,9.94-2.37,15.26h0l-1.12,31.43L247.33,252c1.19-7.14,6.76-16.52,8.63-22.55-1.9-4.75-12.94-24.12-12.93-34.09,0-21.31,18.43-23.15,18.43-23.15" style="fill:#FFC100"></path><g style="opacity:0.1"><path d="M287.09,194l9.7,1.51a11.7,11.7,0,0,0,3.12.22,4.08,4.08,0,0,0,2.75-1.35c1.14-1.4.79-3.49.06-5.15s-1.8-3.22-2-5Z"></path></g><path d="M316.13,221.16l5.29,18.06s-27.71,10.08-42.72,9.89c-14.06-.17-18.08-1.77-23-13.12s-10.56-24.4-11.74-31.91c0,0-7.94-34.58,22.34-31.49l.82,27s3.35,11.08,3.59,11.72c2.26,6,5.19,14.74,8,15.8S316.13,221.16,316.13,221.16Z" style="fill:#FFC100"></path><path d="M249.65,221.74a3.76,3.76,0,0,1,.2.4c.13.28.31.68.53,1.19.47,1,1.15,2.59,2.08,4.57s2.12,4.37,3.7,7a41.18,41.18,0,0,0,6.33,8.42,22.27,22.27,0,0,0,4.84,3.74,11.43,11.43,0,0,0,1.44.73,10.09,10.09,0,0,0,1.52.62,16.63,16.63,0,0,0,3.29.78c4.58.66,9.58,0,14.71-1s10.49-2.48,16-3.93a166,166,0,0,0,17-5.35l-.15.31c-.78-2.62-1.6-5.41-2.43-8.24l-2.89-9.82.29.18c-6.8,1.18-13.28,2.8-19.52,4.07a78.83,78.83,0,0,1-17.95,1.9h-.15l-.06-.14c-2.58-6.72-4.59-13-6.38-18.56s-3.34-10.4-4.62-14.4-2.38-7.1-3.14-9.21l-.88-2.42c-.09-.26-.16-.46-.21-.62s-.07-.21-.07-.21a.71.71,0,0,1,.1.2l.25.61c.21.54.54,1.33.94,2.39.8,2.1,1.91,5.2,3.26,9.17s2.91,8.82,4.72,14.38,3.85,11.82,6.45,18.51l-.2-.15A79.32,79.32,0,0,0,296.55,225c6.22-1.28,12.71-2.91,19.53-4.1l.23,0,.07.22q1.41,4.83,2.89,9.83c.83,2.82,1.65,5.61,2.43,8.23l.06.23-.22.09a164.36,164.36,0,0,1-17.07,5.35c-5.58,1.45-10.92,2.87-16.09,3.91s-10.2,1.62-14.87.94a17.92,17.92,0,0,1-3.36-.82,18.81,18.81,0,0,1-3-1.4,22.52,22.52,0,0,1-4.9-3.82,41.27,41.27,0,0,1-6.32-8.53c-1.56-2.71-2.72-5.12-3.63-7.11s-1.56-3.55-2-4.61l-.49-1.21Z" style="fill:#263238"></path><path d="M301.59,201s3.67,4.11,3.73,7.65c.1,5.6-1.31,8.48.44,14.6l-5,1.21s-.76-1.49-.11-4.69,1.92-7.09,2.48-10.57A11.87,11.87,0,0,0,301.59,201Z" style="opacity:0.30000000000000004"></path><path d="M300.75,224.42a6.25,6.25,0,0,1-.3-1.23,13.47,13.47,0,0,1,0-3.44,36,36,0,0,1,1.07-5,44.55,44.55,0,0,0,1.37-6,11.74,11.74,0,0,0-.63-6,15.14,15.14,0,0,0-2.68-4.18c-1.89-2.15-3.24-3.34-3.17-3.41a5.08,5.08,0,0,1,1,.78,30.91,30.91,0,0,1,2.46,2.38,15.27,15.27,0,0,1,2.85,4.25,12,12,0,0,1,.7,6.21,41.37,41.37,0,0,1-1.43,6.07,39.1,39.1,0,0,0-1.16,4.89,15.78,15.78,0,0,0-.18,3.37A5.29,5.29,0,0,1,300.75,224.42Z" style="fill:#263238"></path><g style="opacity:0.2"><path d="M301.44,224l-15.49.35a8.85,8.85,0,0,1-3.63-.42c-1.63-.69-2.68-2.28-3.59-3.79q-4.08-6.73-7.48-13.83s4.1,13,6.66,18.67c.74,1.64,1.83,2.12,3.62,1.86A70.05,70.05,0,0,0,301.44,224Z"></path></g><path d="M254.66,233.25s5.24,19.93,18.68,19.53,26.18-6.16,26.18-6.16l-.6-.62s-22.84,4.92-29.19,1.82C257.68,242,254.66,233.25,254.66,233.25Z" style="opacity:0.2"></path><g style="opacity:0.1"><path d="M257.56,172.85c-3.86,2.46-5.3,7.65-4.46,12.16s3.51,8.44,6.42,12a3.23,3.23,0,0,0,1.29,1.09,3.32,3.32,0,0,0,2.28-.29l18.32-7a4.09,4.09,0,0,1-2.2-2.51"></path></g><path d="M253.76,212.62a17.1,17.1,0,0,1,.72-4.08,16.79,16.79,0,0,1,1.23-3.95,16.51,16.51,0,0,1-.72,4.08A16.79,16.79,0,0,1,253.76,212.62Z" style="fill:#263238"></path><path d="M262.72,223.09a12.87,12.87,0,0,1-3-2.11,12.47,12.47,0,0,1-2.63-2.52,25.65,25.65,0,0,1,5.6,4.63Z" style="fill:#263238"></path><path d="M269.91,238.9a16.19,16.19,0,0,1,0-4.14,16.71,16.71,0,0,1,.53-4.09,16.1,16.1,0,0,1,0,4.13A16.85,16.85,0,0,1,269.91,238.9Z" style="fill:#263238"></path><path d="M284.8,237.83a25.57,25.57,0,0,1-5.34,4.91,24.92,24.92,0,0,1,5.34-4.91Z" style="fill:#263238"></path><path d="M297.68,234.89a16,16,0,0,1-3.39-2.22A15.32,15.32,0,0,1,291.2,230a16.43,16.43,0,0,1,3.4,2.22A16.21,16.21,0,0,1,297.68,234.89Z" style="fill:#263238"></path><path d="M311.2,231.3a21.45,21.45,0,0,1-2.38,4A20.47,20.47,0,0,1,306,239a21.45,21.45,0,0,1,2.38-4A20.92,20.92,0,0,1,311.2,231.3Z" style="fill:#263238"></path><path d="M288.75,217.11a16.08,16.08,0,0,1-3-2.81,16.74,16.74,0,0,1-2.61-3.17,15.86,15.86,0,0,1,3,2.81A16.57,16.57,0,0,1,288.75,217.11Z" style="fill:#263238"></path><path d="M299.21,204.15a18.81,18.81,0,0,1-3.88,4.82,18.81,18.81,0,0,1,3.88-4.82Z" style="fill:#263238"></path><path d="M284.6,203.89c-.11.11-1.49-1.2-3.41-2.5s-3.65-2.11-3.59-2.25a13.64,13.64,0,0,1,7,4.75Z" style="fill:#263238"></path><path d="M250.43,193.05a10,10,0,0,1-1.68-2.77,10.15,10.15,0,0,1-1.23-3,20.31,20.31,0,0,1,2.91,5.78Z" style="fill:#263238"></path><path d="M312.36,218.89a9.45,9.45,0,0,1-2.79-1.21A9.16,9.16,0,0,1,307,216a17.76,17.76,0,0,1,5.35,2.88Z" style="fill:#263238"></path><path d="M340.69,220.4a11.11,11.11,0,0,1-2.53-2.27A11.22,11.22,0,0,1,336,215.5a11.11,11.11,0,0,1,2.53,2.27A11.22,11.22,0,0,1,340.69,220.4Z" style="fill:#263238"></path><path d="M350.67,219.53A26,26,0,0,1,347.9,224a26.6,26.6,0,0,1-3.2,4.13,26,26,0,0,1,2.77-4.43A26.6,26.6,0,0,1,350.67,219.53Z" style="fill:#263238"></path><path d="M256.93,248a22.71,22.71,0,0,1-3.34-6,22.71,22.71,0,0,1,3.34,6Z" style="fill:#263238"></path><path d="M297.23,251.6a26.74,26.74,0,0,1-7.34.89,26.74,26.74,0,0,1,7.34-.89Z" style="fill:#263238"></path><path d="M293.87,133.51a13.74,13.74,0,0,0,2.78,11.5c1.65,2,4,3.76,4.29,6.34.4,3.34-2.89,6.39-2.21,9.67.56,2.69,3.43,4.1,5.27,6.12A9.46,9.46,0,0,1,305.12,178c-1.54,2.62-4.49,4.89-4.08,7.9a15.91,15.91,0,0,0,1.22,3.29,3.18,3.18,0,0,1-.34,3.31,3.81,3.81,0,0,1-2.19.84,59.06,59.06,0,0,1-17.41,0l3.11-59.85Z" style="fill:#263238"></path><path d="M266,173.27l-1.6-36.65,14.55-11,13.23,6.46s.44,16.61,0,23.82-7.7,8-7.7,8,.17,4.22.33,8.65a9.41,9.41,0,0,1-9.49,9.77h0A9.42,9.42,0,0,1,266,173.27Z" style="fill:#ffbe9d"></path><path d="M290.77,144.17a.92.92,0,1,1-.92-.92A.92.92,0,0,1,290.77,144.17Z" style="fill:#263238"></path><path d="M291.66,143.17c-.12.11-.8-.46-1.79-.52s-1.74.43-1.84.29.07-.27.4-.5a2.48,2.48,0,0,1,1.48-.39,2.42,2.42,0,0,1,1.42.57C291.63,142.88,291.72,143.11,291.66,143.17Z" style="fill:#263238"></path><path d="M280.09,144.17a.93.93,0,1,1-.92-.92A.92.92,0,0,1,280.09,144.17Z" style="fill:#263238"></path><path d="M280.66,143.17c-.12.11-.8-.46-1.79-.52s-1.74.43-1.84.29.07-.27.4-.5a2.48,2.48,0,0,1,1.48-.39,2.45,2.45,0,0,1,1.42.57C280.62,142.88,280.72,143.11,280.66,143.17Z" style="fill:#263238"></path><path d="M284.51,163.85a18,18,0,0,1-9.54-3.23s2.39,5.4,9.61,5.1Z" style="fill:#eb996e"></path><path d="M284.24,151.55a6.31,6.31,0,0,1,1.63-.2c.25,0,.5,0,.55-.24a1.41,1.41,0,0,0-.14-.8c-.22-.65-.44-1.34-.68-2.06-.47-1.46-.88-2.79-1.15-3.76a6.65,6.65,0,0,1-.37-1.6,6.92,6.92,0,0,1,.64,1.51c.34.95.79,2.27,1.26,3.73.23.72.44,1.41.65,2.07a1.55,1.55,0,0,1,.1,1,.64.64,0,0,1-.42.36,1.76,1.76,0,0,1-.43,0A7.18,7.18,0,0,1,284.24,151.55Z" style="fill:#263238"></path><path d="M283.51,152.39a2.32,2.32,0,0,0-1,.59,1,1,0,0,0-.25,1.07,1.08,1.08,0,0,0,1.25.53,1.3,1.3,0,0,0,.91-.68,1,1,0,0,0-.12-1.1.84.84,0,0,0-1.06-.16" style="fill:#eb996e"></path><path d="M284.79,153.84c0,.14-.81.37-1.69-.14s-1.13-1.34-1-1.38.52.53,1.25.93S284.78,153.7,284.79,153.84Z" style="fill:#263238"></path><path d="M280.17,124.45a17,17,0,0,0-20,19.2c.4,2.59,1.39,5.23.71,7.76-.9,3.37-4.52,5.49-5.39,8.88-1.07,4.16,2.42,8.22,2.34,12.53,0,2.31-1.12,4.47-1.67,6.73a15.33,15.33,0,0,0,6,15.83,2.35,2.35,0,0,0,1.17.5,2.52,2.52,0,0,0,1.18-.32l15.89-7.25c-3-4.45-6.07-9.36-5.62-14.69.24-2.76,1.43-5.54.7-8.21-.58-2.11-2.23-3.7-3.68-5.34s-2.81-3.63-2.58-5.8c.26-2.47,2.54-4.46,2.51-7,0-1.75-1.2-3.25-1.79-4.9a10.27,10.27,0,0,1,1.2-8.45,30.26,30.26,0,0,1,5.79-6.59" style="fill:#263238"></path><path d="M270.37,132.2c-.05,1.55-.92,3-1.39,4.46s-.4,3.34,1,4.27a3.91,3.91,0,0,0,1.19.5,12.77,12.77,0,0,0,5.46-.2l.24-4.09a5.48,5.48,0,0,0,2,3.23,4.09,4.09,0,0,0,3.89.59,2.39,2.39,0,0,0,1.41-3.13c.45,1.55,2.12,2.61,3.85,3a16.15,16.15,0,0,0,5.28-.11c-.86-1.36-.29-3.06.22-4.55s.89-3.3-.23-4.49a15.47,15.47,0,0,0-1.26-1,13.14,13.14,0,0,1-2.07-2.89c-2.35-3.39-7.43-4.85-11.66-3.67a12,12,0,0,0-8.37,8.59" style="fill:#263238"></path></g><g id="freepik--speech-bubble--inject-294"><path d="M203.28,95.32a4.11,4.11,0,0,1-.56.06l-1.64.12a18.75,18.75,0,0,0-2.64.36,14.32,14.32,0,0,0-1.67.32l-1.87.51A31,31,0,0,0,186,101.1a31.63,31.63,0,0,0-8.74,9.73,33.15,33.15,0,0,0-3.06,7,33.63,33.63,0,0,0-1.34,8.17,35.59,35.59,0,0,0,.08,4.37c0,.73.2,1.47.29,2.21a15.4,15.4,0,0,0,.43,2.23,31.48,31.48,0,0,0,3.37,8.75,31.11,31.11,0,0,0,14.68,13.34,28.67,28.67,0,0,0,10.34,2.32,27.89,27.89,0,0,0,10.81-1.56l1.06-.38.14-.06.12.07,15.2,7.71-.45.39q-2.43-7.56-4.71-14.61l0-.18.13-.13a32.51,32.51,0,0,0,8-13.27,33.35,33.35,0,0,0,1.15-14.12,32.49,32.49,0,0,0-10.85-20.37A29.65,29.65,0,0,0,208.82,96l-2.36-.4-1.75-.12-1.07-.08a1.45,1.45,0,0,1-.36-.05h.36l1.08,0,1.75.08,2.39.35a31.79,31.79,0,0,1,6.39,1.92,33,33,0,0,1,7.59,4.73,32.45,32.45,0,0,1,7,8.46A33.22,33.22,0,0,1,234,123a33.71,33.71,0,0,1-1.13,14.37,33,33,0,0,1-8.09,13.53l.07-.32,4.73,14.6.24.74-.69-.35-15.2-7.71h.26l-1.08.4a28.69,28.69,0,0,1-11,1.59,29.38,29.38,0,0,1-10.58-2.39,32.36,32.36,0,0,1-18.35-22.54,16.2,16.2,0,0,1-.43-2.27c-.09-.76-.25-1.5-.29-2.26a36.66,36.66,0,0,1-.06-4.44,34.22,34.22,0,0,1,1.4-8.29,33.26,33.26,0,0,1,3.14-7.08,31.92,31.92,0,0,1,8.93-9.8,30.56,30.56,0,0,1,9-4.35l1.89-.49a14.26,14.26,0,0,1,1.69-.29,16.58,16.58,0,0,1,2.66-.3l1.65-.05Z" style="fill:#263238"></path><path d="M210.15,123.45h-2.22l-4.86-6.77v-4.44s-3.45-.21-3,5.61,0,4.33,0,4.33-7.31,0-7.92.67c-.44.46-.64,7.72-.72,11.66a4.26,4.26,0,0,0,3,4.29,3.13,3.13,0,0,0,.79.11c1.82,0,11.14-1.49,11.14-1.49h3.84Z" style="fill:#FFC100"></path><polygon points="216.53 122.23 215.16 137.47 211.34 137.47 211.34 122.54 216.53 122.23" style="fill:#FFC100"></polygon></g></svg>